<?xml version="1.0" encoding="UTF-8"?>
<svg id="Layer_1" xmlns="http://www.w3.org/2000/svg" version="1.1" viewBox="0 0 403.96 160.24">
  <!-- Generator: Adobe Illustrator 29.1.0, SVG Export Plug-In . SVG Version: 2.1.0 Build 142)  -->
  <defs>
    <style>
      .st0, .st1, .st2, .st3, .st4, .st5, .st6, .st7 {
        font-size: 7px;
      }

      .st0, .st2, .st4, .st5, .st7 {
        font-family: ArialMT, Arial;
      }

      .st0, .st8, .st9 {
        fill: #21409a;
      }

      .st10 {
        fill: #fbb040;
      }

      .st10, .st11, .st12, .st13, .st14, .st15, .st16, .st17, .st18, .st19, .st20, .st21, .st22, .st23, .st9, .st24 {
        stroke-miterlimit: 10;
        stroke-width: .5px;
      }

      .st10, .st11, .st14, .st15, .st18, .st19, .st20, .st21, .st9, .st24 {
        stroke: #231f20;
      }

      .st11, .st25, .st14, .st26 {
        fill-rule: evenodd;
      }

      .st11, .st14 {
        opacity: .7;
      }

      .st11, .st26 {
        fill: #92278f;
      }

      .st27, .st21 {
        fill: #7f3f98;
      }

      .st12 {
        stroke: #21409a;
      }

      .st12, .st13, .st17, .st18, .st22, .st23 {
        fill: none;
      }

      .st25, .st14 {
        fill: #4b00df;
      }

      .st13 {
        stroke: #939598;
      }

      .st28, .st7 {
        fill: #231f20;
      }

      .st29 {
        fill: #5b57a4;
      }

      .st15 {
        fill: #c6c3e1;
      }

      .st16 {
        fill: #eeecf6;
        stroke: #000;
      }

      .st1 {
        font-family: Arial-BoldItalicMT, Arial;
        font-style: italic;
      }

      .st1, .st3, .st6 {
        font-weight: 700;
      }

      .st17 {
        stroke: #ed1c24;
      }

      .st2, .st30 {
        fill: #f7941d;
      }

      .st19, .st5 {
        fill: #00aeef;
      }

      .st20, .st3 {
        fill: #ed1c24;
      }

      .st3, .st6 {
        font-family: Arial-BoldMT, Arial;
      }

      .st22 {
        stroke: #00a651;
      }

      .st31 {
        fill: #939598;
      }

      .st23 {
        stroke: #00aeef;
      }

      .st24 {
        fill: #00a651;
      }
    </style>
  </defs>
  <g>
    <path class="st14" d="M237.1,29.92c.32.13.55-.08,1.17-.26.34-.1,1.58-.48,1.98,0,.17.2.18.55.07.78-.16.33-.51.27-1.2.71-.37.24-.57.37-.71.64-.18.36-.2.9-.2.9,0,0,.51.15.98.23.57.09.55-.03.99.07.34.07.58.13.74.35.14.2.19.48.11.71-.05.14-.15.24-.64.57-.43.28-.92.5-.92.5-.11.04-.42.15-.6.46-.06.1-.14.21-.11.32.04.1.17.14.35.19.67.18.73.19.85.23.27.1.53.19.64.42.11.23.05.57-.14.78-.43.47-1.33.02-1.56.41-.09.15-.03.36.04.58.07.22.17.37.46.71.55.65.63.64.71.85.1.29.11.75-.14.99-.49.46-1.81-.07-1.81-.08,0,0,.01,0,.04,0-.11-.02-.31-.03-.5.07-.38.22-.48.83-.28,1.2.18.35.5.25,1.13.71.26.19.62.46.85.92.07.15.47,1,.07,1.49-.37.45-1.22.33-1.7.14-.56-.22-.53-.51-1.2-.85-.09-.05-1.17-.58-1.55-.21-.23.22-.18.67-.15.91.05.45.22.52.21.88,0,.11-.03.6-.35.81-.35.23-.87.02-1.27-.14-.66-.27-.86-.58-1.1-.47-.26.12-.28.64-.29.82-.01.45.14.54.14.99,0,.2,0,.78-.3.93-.32.16-.86-.24-1.12-.5-.44-.44-.39-.78-.74-.92-.27-.1-.66-.05-.88.18-.43.45.11,1.26-.32,1.66-.19.18-.53.25-.78.14-.56-.25-.33-1.3-.92-1.56-.28-.12-.58.01-.6.02-.26.12-.37.39-.53.9-.37,1.18-.27,1.36-.5,1.56-.44.39-1.39.31-1.77-.14-.23-.28-.09-.49-.28-1.49-.13-.67-.23-1.13-.5-1.2-.29-.09-.48.36-1.31.81-.46.25-.87.47-1.17.32-.36-.18-.39-.81-.42-1.35-.05-.9.19-1.29-.03-1.46-.14-.11-.32,0-1.53.4-.4.13-.71.23-1.13.28-.49.07-.77.1-.99-.07-.36-.28-.29-.88-.28-.99.05-.48.28-.57.57-1.27.17-.42.39-.98.17-1.21-.07-.07-.2-.13-.95.01-1.09.2-1.33.4-1.7.25-.31-.13-.56-.46-.6-.78-.02-.12-.02-.35.67-1.38.38-.57.47-.63.5-.85.05-.5-.28-1.04-.71-1.2-.36-.13-.69.04-.99.14-1.4.5-3.22.08-3.4-.5-.13-.41.55-1.01.99-1.27.54-.32,1.27-.47,1.77-.57.56-.11.87-.12.99-.35.13-.24,0-.59-.18-.81-.41-.52-1.06-.25-1.42-.74-.2-.27-.26-.7-.09-.98.21-.34.62-.21,1.48-.58.51-.22.91-.39.99-.74.09-.38-.24-.77-.46-1.03-.45-.52-.77-.5-1.03-.99-.07-.14-.24-.47-.11-.74.13-.26.47-.33.74-.39.31-.06.54-.04,1.13,0,.93.06,1.12.15,1.27,0,.26-.25.1-.86-.07-1.2-.19-.38-.36-.39-.78-.92-.39-.49-.65-.84-.57-1.2.1-.4.6-.66.99-.71.18-.02.48.08,1.06.28.6.21.9.31,1.13.42.44.22.58.35.71.28.19-.11.13-.6.04-.92-.14-.45-.33-.5-.6-.99-.14-.26-.56-1.01-.28-1.35.14-.17.4-.16.49-.16.17,0,.42.06,1.03.66.49.48.42.52.67.71.31.23.95.53,1.35.28.5-.31.38-1.34.35-1.56-.05-.46-.19-.56-.15-.96.03-.31.16-.9.51-.99.33-.08.69.33.99.67.21.23.19.29.57.78.45.6.56.69.71.71.39.06.75-.39.78-.42.31-.39.11-.68.35-1.35.03-.09.35-.97.73-.96.36.01.62.82.69,1.03.12.38.07.47.21.92.16.48.23.72.42.85.51.35,1.43-.21,1.56-.28.53-.32.49-.55,1.13-1.13.44-.4,1.16-1.05,1.6-.85.34.16.39.77.42,1.1.04.53-.11.72-.11,1.59,0,.41.03.59.15.76.16.22.44.38.72.39.35,0,.46-.23.97-.51.47-.26,1.24-.52,1.45-.28.05.05.06.12-.04.74-.09.59-.12.62-.14.85-.02.22-.11,1.08.21,1.24.16.08.27-.08.71-.21.11-.03.98-.29,1.24.04.11.14.07.35-.04.78-.17.73-.4.86-.35,1.24.04.3.24.64.53.76Z"/>
    <path class="st25" d="M228.08,34.4c-.28.57-.52,1.07-1,1.61-.83.92-1.76,1.3-1.97,1.38-.1.04-.61.16-1.63.39-1.32.3-1.45.33-1.74.42-.93.31-1.39.47-1.69.89-.64.89-.14,2.16-.06,2.36.23.6.6.95.98,1.33.91.9,1.87,1.27,2.06,1.34,1.15.42,2.11.34,2.94.27.29-.03,1.48-.14,2.89-.76.27-.12,1.08-.49,2.02-1.19.7-.52,1.56-1.16,2.29-2.32.6-.95.88-1.87,1.01-2.52.2-.98.14-1.74.09-2.39-.09-1.2-.15-1.86-.57-2.58-.12-.2-1.11-1.82-2.65-1.74-1.15.06-1.9,1.04-2.02,1.19-.52.68-.31.99-.95,2.33Z"/>
  </g>
  <g>
    <path class="st11" d="M199.76,99.58c.32.13.55-.08,1.17-.26.34-.1,1.58-.48,1.98,0,.17.2.18.55.07.78-.16.33-.51.27-1.2.71-.37.24-.57.37-.71.64-.18.36-.2.9-.2.9,0,0,.51.15.98.23.57.09.55-.03.99.07.34.07.58.13.74.35.14.2.19.48.11.71-.05.14-.15.24-.64.57-.43.28-.92.5-.92.5-.11.04-.42.15-.6.46-.06.1-.14.21-.11.32.04.1.17.14.35.19.67.18.73.19.85.23.27.1.53.19.64.42.11.23.05.57-.14.78-.43.47-1.33.02-1.56.41-.09.15-.03.36.04.58.07.22.17.37.46.71.55.65.63.64.71.85.1.29.11.75-.14.99-.49.46-1.81-.07-1.81-.08,0,0,.01,0,.04,0-.11-.02-.31-.03-.5.07-.38.22-.48.83-.28,1.2.18.35.5.25,1.13.71.26.19.62.46.85.92.07.15.47,1,.07,1.49-.37.45-1.22.33-1.7.14-.56-.22-.53-.51-1.2-.85-.09-.05-1.17-.58-1.55-.21-.23.22-.18.67-.15.91.05.45.22.52.21.88,0,.11-.03.6-.35.81-.35.23-.87.02-1.27-.14-.66-.27-.86-.58-1.1-.47-.26.12-.28.64-.29.82-.01.45.14.54.14.99,0,.2,0,.78-.3.93-.32.16-.86-.24-1.12-.5-.44-.44-.39-.78-.74-.92-.27-.1-.66-.05-.88.18-.43.45.11,1.26-.32,1.66-.19.18-.53.25-.78.14-.56-.25-.33-1.3-.92-1.56-.28-.12-.58.01-.6.02-.26.12-.37.39-.53.9-.37,1.18-.27,1.36-.5,1.56-.44.39-1.39.31-1.77-.14-.23-.28-.09-.49-.28-1.49-.13-.67-.23-1.13-.5-1.2-.29-.09-.48.36-1.31.81-.46.25-.87.47-1.17.32-.36-.18-.39-.81-.42-1.35-.05-.9.19-1.29-.03-1.46-.14-.11-.32,0-1.53.4-.4.13-.71.23-1.13.28-.49.07-.77.1-.99-.07-.36-.28-.29-.88-.28-.99.05-.48.28-.57.57-1.27.17-.42.39-.98.17-1.21-.07-.07-.2-.13-.95.01-1.09.2-1.33.4-1.7.25-.31-.13-.56-.46-.6-.78-.02-.12-.02-.35.67-1.38.38-.57.47-.63.5-.85.05-.5-.28-1.04-.71-1.2-.36-.13-.69.04-.99.14-1.4.5-3.22.08-3.4-.5-.13-.41.55-1.01.99-1.27.54-.32,1.27-.47,1.77-.57.56-.11.87-.12.99-.35.13-.24,0-.59-.18-.81-.41-.52-1.06-.25-1.42-.74-.2-.27-.26-.7-.09-.98.21-.34.62-.21,1.48-.58.51-.22.91-.39.99-.74.09-.38-.24-.77-.46-1.03-.45-.52-.77-.5-1.03-.99-.07-.14-.24-.47-.11-.74.13-.26.47-.33.74-.39.31-.06.54-.04,1.13,0,.93.06,1.12.15,1.27,0,.26-.25.1-.86-.07-1.2-.19-.38-.36-.39-.78-.92-.39-.49-.65-.84-.57-1.2.1-.4.6-.66.99-.71.18-.02.48.08,1.06.28.6.21.9.31,1.13.42.44.22.58.35.71.28.19-.11.13-.6.04-.92-.14-.45-.33-.5-.6-.99-.14-.26-.56-1.01-.28-1.35.14-.17.4-.16.49-.16.17,0,.42.06,1.03.66.49.48.42.52.67.71.31.23.95.53,1.35.28.5-.31.38-1.34.35-1.56-.05-.46-.19-.56-.15-.96.03-.31.16-.9.51-.99.33-.08.69.33.99.67.21.23.19.29.57.78.45.6.56.69.71.71.39.06.75-.39.78-.42.31-.39.11-.68.35-1.35.03-.09.35-.97.73-.96.36.01.62.82.69,1.03.12.38.07.47.21.92.16.48.23.72.42.85.51.35,1.43-.21,1.56-.28.53-.32.49-.55,1.13-1.13.44-.4,1.16-1.05,1.6-.85.34.16.39.77.42,1.1.04.53-.11.72-.11,1.59,0,.41.03.59.15.76.16.22.44.38.72.39.35,0,.46-.23.97-.51.47-.26,1.24-.52,1.45-.28.05.05.06.12-.04.74-.09.59-.12.62-.14.85-.02.22-.11,1.08.21,1.24.16.08.27-.08.71-.21.11-.03.98-.29,1.24.04.11.14.07.35-.04.78-.17.73-.4.86-.35,1.24.04.3.24.64.53.76Z"/>
    <path class="st26" d="M190.74,104.06c-.28.57-.52,1.07-1,1.61-.83.92-1.76,1.3-1.97,1.38-.1.04-.61.16-1.63.39-1.32.3-1.45.33-1.74.42-.93.31-1.39.47-1.69.89-.64.89-.14,2.16-.06,2.36.23.6.6.95.98,1.33.91.9,1.87,1.27,2.06,1.34,1.15.42,2.11.34,2.94.27.29-.03,1.48-.14,2.89-.76.27-.12,1.08-.49,2.02-1.19.7-.52,1.56-1.16,2.29-2.32.6-.95.88-1.87,1.01-2.52.2-.98.14-1.74.09-2.39-.09-1.2-.15-1.86-.57-2.58-.12-.2-1.11-1.82-2.65-1.74-1.15.06-1.9,1.04-2.02,1.19-.52.68-.31.99-.95,2.33Z"/>
  </g>
  <g>
    <ellipse class="st15" cx="115.09" cy="131.97" rx="15.71" ry="11.28"/>
    <circle class="st29" cx="108.65" cy="131.97" r="6.11"/>
    <path class="st29" d="M121.33,125.96c.68-.14,1.49,1.76,1.83,2.83.05.15.99,3.25,0,6.36-.35,1.09-1.16,2.97-1.83,2.83-.4-.08-.59-.84-.64-1-.49-1.85,1.16-2.75,1.18-4.97.02-2.27-1.7-3.26-1.18-5.11.04-.15.25-.87.64-.95Z"/>
    <path class="st29" d="M117.05,125.96c.68-.14,1.49,1.76,1.83,2.83.05.15.99,3.25,0,6.36-.35,1.09-1.16,2.97-1.83,2.83-.4-.08-.59-.84-.64-1-.49-1.85,1.16-2.75,1.18-4.97.02-2.27-1.7-3.26-1.18-5.11.04-.15.25-.87.64-.95Z"/>
    <path class="st29" d="M125.33,125.96c.68-.14,1.49,1.76,1.83,2.83.05.15.99,3.25,0,6.36-.35,1.09-1.16,2.97-1.83,2.83-.4-.08-.59-.84-.64-1-.49-1.85,1.16-2.75,1.18-4.97.02-2.27-1.7-3.26-1.18-5.11.04-.15.25-.87.64-.95Z"/>
  </g>
  <text class="st4" transform="translate(218.22 61.15)"><tspan x="0" y="0">cDC1</tspan></text>
  <text class="st4" transform="translate(179.21 130.49)"><tspan x="0" y="0">cDC2</tspan></text>
  <text class="st4" transform="translate(106.37 154.51)"><tspan x="0" y="0">pDC</tspan></text>
  <text class="st1" transform="translate(.66 36.25)"><tspan x="0" y="0">Nfil3</tspan></text>
  <text class="st1" transform="translate(6.64 98.48)"><tspan x="0" y="0">Id2</tspan></text>
  <text class="st1" transform="translate(62.26 68.55)"><tspan x="0" y="0">Zeb2</tspan></text>
  <text class="st1" transform="translate(134.17 68.55)"><tspan x="0" y="0">Irf8</tspan></text>
  <text class="st1" transform="translate(34.03 132.76)"><tspan x="0" y="0">Tcf4</tspan></text>
  <text class="st1" transform="translate(132.28 9.12)"><tspan x="0" y="0">Batf3</tspan></text>
  <text class="st0" transform="translate(4.6 55.42)"><tspan x="0" y="0">@ -165-kb</tspan></text>
  <text class="st0" transform="translate(4.6 78.98)"><tspan x="0" y="0">@ -165-kb</tspan></text>
  <text class="st0" transform="translate(105.42 36.08)"><tspan x="0" y="0">@ +32-kb</tspan></text>
  <text class="st4" transform="translate(165.61 31.98)"><tspan x="0" y="0">@ AICEs</tspan></text>
  <text class="st4" transform="translate(61.43 127.39)"><tspan x="0" y="0">@ E-boxes</tspan></text>
  <g>
    <line class="st17" x1="84.59" y1="65.43" x2="127.86" y2="65.43"/>
    <line class="st17" x1="127.86" y1="62.32" x2="127.86" y2="68.54"/>
  </g>
  <g>
    <line class="st18" x1="316.1" y1="63.36" x2="345.09" y2="63.36"/>
    <g>
      <path class="st21" d="M376.9,36.66c-1.86.15-2.13,3.43-4.71,8.42-2.36,4.6-4.64,6.69-3.74,8.05.36.55,1.12.8,1.72.75,1.75-.13,2.32-2.74,4.62-7.32,2.74-5.45,4.86-7.57,3.86-9.05-.27-.41-.7-.62-.7-.62s-.48-.29-1.07-.24Z"/>
      <path class="st21" d="M380.27,52.72c.74-2.17-2.2-3.88-4.71-8.25-2.48-4.32-2.5-7.72-4.21-7.82-.66-.04-1.31.42-1.64.93-.66,1.04-.25,2.64,3.09,8.09,3.17,5.16,5.26,8.52,6.64,8.08.52-.17.74-.81.82-1.04Z"/>
    </g>
    <g>
      <path class="st24" d="M287.08,42.08c-1.14,0-1.52,1.23-3.62,3.92-2.28,2.92-3.46,3.56-3.22,4.81.17.89,1,1.76,1.83,1.81,1.08.05,1.5-1.31,3.61-4.05,2.36-3.06,3.74-3.81,3.41-5-.23-.83-1.17-1.49-2.01-1.49Z"/>
      <path class="st22" d="M288.36,42.45c.15-.09,2-1.15,3.77-.26,1.92.97,1.98,3.38,1.99,3.88.01.53.07,3.11-1.84,3.97-1.31.59-3.02.14-4.16-1.15"/>
      <path class="st24" d="M280.74,39.23c-.42,1.05.56,1.87,2.26,4.84,1.84,3.22,1.98,4.55,3.23,4.81.89.18,2.01-.25,2.37-1.01.46-.97-.64-1.88-2.37-4.88-1.93-3.35-2.11-4.9-3.33-5.05-.85-.11-1.83.51-2.14,1.3Z"/>
    </g>
    <g>
      <path class="st10" d="M345.46,16.83c-1.86.15-2.13,3.43-4.71,8.42-2.36,4.6-4.64,6.69-3.74,8.05.36.55,1.12.8,1.72.75,1.75-.13,2.32-2.74,4.62-7.32,2.74-5.45,4.86-7.57,3.86-9.05-.27-.41-.7-.62-.7-.62s-.48-.29-1.07-.24Z"/>
      <path class="st10" d="M348.84,32.89c.74-2.17-2.2-3.88-4.71-8.25-2.48-4.32-2.5-7.72-4.21-7.82-.66-.04-1.31.42-1.64.93-.66,1.04-.25,2.64,3.09,8.09,3.17,5.16,5.26,8.52,6.64,8.08.52-.17.74-.81.82-1.04Z"/>
    </g>
    <g>
      <line class="st18" x1="339.4" y1="38.39" x2="339.4" y2="53.13"/>
      <path class="st28" d="M339.4,56.15c-.53-1.42-1.43-3.18-2.38-4.27l2.38.86,2.38-.86c-.95,1.09-1.85,2.85-2.38,4.27Z"/>
    </g>
    <g>
      <path class="st19" d="M323.03,12.7c-1.14,0-1.53,1.22-3.65,3.89-2.31,2.9-3.49,3.53-3.26,4.78.16.89.98,1.77,1.82,1.82,1.07.06,1.51-1.3,3.64-4.02,2.39-3.04,3.77-3.78,3.45-4.98-.22-.83-1.16-1.5-2-1.5Z"/>
      <path class="st19" d="M325.38,17.05c-1.87-.07-2.53,3.14-5.69,7.79-2.9,4.28-5.41,6.08-4.68,7.54.29.59,1.02.93,1.62.95,1.75.08,2.63-2.44,5.47-6.71,3.38-5.08,5.73-6.93,4.93-8.52-.22-.44-.62-.7-.62-.7s-.44-.34-1.04-.37Z"/>
      <path class="st19" d="M319.94,13.82c-.5,1.02.43,1.91,1.9,4.99,1.6,3.34,1.65,4.68,2.87,5.03.87.24,2.02-.11,2.43-.83.53-.94-.51-1.92-2.01-5.04-1.68-3.48-1.75-5.04-2.96-5.28-.84-.17-1.86.38-2.23,1.14Z"/>
      <path class="st19" d="M327.31,33.08c.91-1.63-1.65-3.68-4.36-8.61-2.49-4.53-2.96-7.58-4.59-7.6-.66,0-1.29.49-1.59,1.01-.87,1.53.98,3.46,3.49,7.93,2.99,5.32,3.57,8.26,5.35,8.26.67,0,1.37-.41,1.7-.99Z"/>
      <path class="st23" d="M326.66,17.5c.15-.08,2.08-1,3.77.02,1.85,1.11,1.73,3.51,1.7,4.01-.03.52-.15,3.11-2.12,3.83-1.35.49-3.02-.08-4.07-1.45"/>
      <path class="st23" d="M316.79,22.81c-.12.13-1.32,1.4-2.81,1.13-1.86-.34-2.36-2.76-2.44-3.12-.07-.33-.62-3.01,1.24-4.2,1.23-.79,3.01-.6,4.28.53"/>
    </g>
    <g>
      <line class="st12" x1="324.27" y1="38.39" x2="324.27" y2="53.13"/>
      <path class="st8" d="M324.27,56.15c-.53-1.42-1.43-3.18-2.38-4.27l2.38.86,2.38-.86c-.95,1.09-1.85,2.85-2.38,4.27Z"/>
    </g>
    <text class="st6" transform="translate(318.65 75.86)"><tspan x="0" y="0">-165-kb</tspan></text>
    <text class="st5" transform="translate(302.13 7.49)"><tspan x="0" y="0">E protein</tspan></text>
    <text class="st2" transform="translate(337.02 7.49)"><tspan x="0" y="0">CEBP</tspan></text>
    <text class="st7" transform="translate(384.9 46.06)"><tspan x="0" y="0">NFIL3</tspan></text>
    <text class="st7" transform="translate(263.09 47.35)"><tspan x="0" y="0">ID2</tspan></text>
    <g>
      <rect class="st9" x="322.78" y="60.36" width="2.97" height="6"/>
      <rect class="st9" x="332.76" y="60.36" width="2.97" height="6"/>
      <rect class="st9" x="342.12" y="60.36" width="2.97" height="6"/>
      <rect class="st20" x="316.1" y="60.36" width="3.54" height="6"/>
      <rect class="st20" x="326.88" y="60.36" width="3.54" height="6"/>
      <rect class="st20" x="337.44" y="60.36" width="3.54" height="6"/>
    </g>
    <g>
      <line class="st17" x1="299.1" y1="45.82" x2="319.29" y2="45.82"/>
      <line class="st17" x1="319.29" y1="42.71" x2="319.29" y2="48.93"/>
    </g>
    <g>
      <line class="st17" x1="364.23" y1="45.82" x2="344.04" y2="45.82"/>
      <line class="st17" x1="344.04" y1="48.93" x2="344.04" y2="42.71"/>
    </g>
  </g>
  <g>
    <line class="st17" x1="19.73" y1="38.32" x2="57.2" y2="59.96"/>
    <line class="st17" x1="58.76" y1="57.27" x2="55.65" y2="62.65"/>
  </g>
  <g>
    <line class="st17" x1="19.73" y1="101.94" x2="57.2" y2="123.58"/>
    <line class="st17" x1="58.76" y1="120.89" x2="55.65" y2="126.27"/>
  </g>
  <g>
    <line class="st17" x1="19.73" y1="90.65" x2="57.2" y2="69.01"/>
    <line class="st17" x1="58.76" y1="71.7" x2="55.65" y2="66.32"/>
  </g>
  <g>
    <line class="st17" x1="60.69" y1="73.82" x2="23.22" y2="95.46"/>
    <line class="st17" x1="21.66" y1="92.77" x2="24.77" y2="98.15"/>
  </g>
  <g>
    <line class="st18" x1="140.16" y1="15.7" x2="140.16" y2="55.96"/>
    <path class="st28" d="M140.16,58.97c-.53-1.42-1.43-3.18-2.38-4.27l2.38.86,2.38-.86c-.95,1.09-1.85,2.85-2.38,4.27Z"/>
  </g>
  <g>
    <line class="st18" x1="51.56" y1="131.08" x2="91.82" y2="131.08"/>
    <path class="st28" d="M94.84,131.08c-1.42.53-3.18,1.43-4.27,2.38l.86-2.38-.86-2.38c1.09.95,2.85,1.85,4.27,2.38Z"/>
  </g>
  <g>
    <text class="st6" transform="translate(294.88 157.61)"><tspan x="0" y="0">+32-kb</tspan></text>
    <text class="st4" transform="translate(327.92 157.79)"><tspan x="0" y="0">+41-kb</tspan></text>
    <text class="st4" transform="translate(370.19 157.79)"><tspan x="0" y="0">+56-kb</tspan></text>
    <text class="st4" transform="translate(275.27 92.68)"><tspan class="st8" x="0" y="0">BATF3</tspan><tspan x="21.78" y="0">-</tspan><tspan class="st30" x="24.11" y="0">JUNB</tspan><tspan x="42.39" y="0">-</tspan><tspan class="st27" x="44.72" y="0">IRF8</tspan></text>
    <g>
      <path class="st21" d="M303.97,101.45c-.14.5,0,.61,0,1.71,0,1.18-.14,1.24-.03,1.84.09.48.22,1.2.81,1.62.9.65,2.15.07,2.23.03.35-.17.48-.34,1.39-1.42,1.04-1.25,1.45-1.73,2.1-2.26.69-.57,1.07-.72,1.46-.74.11,0,.95-.06,1.33.49.05.08.16.26.1,1.16-.07.95-.13,1.74-.61,1.97-.03.02-.25.12-.42.03-.2-.11-.12-.4-.29-.78-.05-.11-.24-.49-.61-.68-.52-.25-1.08.02-1.16.06-.28.14-.5.37-.91,1.16-.61,1.19-.48,1.39-.94,2.1-.31.5-.63.99-1.23,1.26-.47.21-.66.08-1.23.36-.35.17-.82.39-1.04.87-.24.54-.02,1.09.13,1.49.25.64.65,1.03.87,1.23.53.49,1.06.69,1.2.74.39.14.92.16,1.97.19,1.11.03,1.34,0,1.46-.03.21-.04.76-.18,1.36-.58.17-.11.82-.57,1.29-1.46.35-.66.44-1.25.49-1.59.04-.26.02-.76,0-1.75-.02-1-.05-1.23.06-1.65.07-.27.1-.23.36-.94.18-.49.29-.8.39-1.2.13-.52.21-.86.19-1.29,0-.22-.04-.82-.39-1.36-.54-.82-1.66-1.23-2.56-1.07-1.08.2-1.84.91-1.84.91-.21.19-.43.46-.71.42-.15-.02-.28-.12-.6-.56-.38-.52-.44-.71-.63-.96-.12-.16-.51-.64-1.13-.87-.13-.05-1.09-.39-1.94.16-.65.42-.84,1.11-.91,1.36Z"/>
      <path class="st10" d="M303.6,98.29c-1.86.15-2.13,3.43-4.71,8.42-2.36,4.6-4.64,6.69-3.74,8.05.36.55,1.12.8,1.72.75,1.75-.13,2.32-2.74,4.62-7.32,2.74-5.45,4.86-7.57,3.86-9.05-.27-.41-.7-.62-.7-.62s-.48-.29-1.07-.24Z"/>
      <path class="st9" d="M306.98,114.34c.74-2.17-2.2-3.88-4.71-8.25-2.48-4.32-2.5-7.72-4.21-7.82-.66-.04-1.31.42-1.64.93-.66,1.04-.25,2.64,3.09,8.09,3.17,5.16,5.26,8.52,6.64,8.08.52-.17.74-.81.82-1.04Z"/>
    </g>
    <g>
      <line class="st13" x1="302.97" y1="120.32" x2="302.97" y2="135.06"/>
      <path class="st31" d="M302.97,138.07c-.53-1.42-1.43-3.18-2.38-4.27l2.38.86,2.38-.86c-.95,1.09-1.85,2.85-2.38,4.27Z"/>
    </g>
    <line class="st18" x1="299.58" y1="145.87" x2="387.95" y2="145.87"/>
    <g>
      <rect class="st16" x="298.2" y="142.87" width="3.54" height="6"/>
      <rect class="st16" x="301.97" y="142.87" width="3.54" height="6"/>
      <rect class="st16" x="305.54" y="142.87" width="3.54" height="6"/>
      <rect class="st16" x="316.13" y="142.87" width="3.54" height="6"/>
    </g>
    <rect class="st9" x="336.42" y="142.87" width="8" height="6"/>
    <rect class="st20" x="379.95" y="142.87" width="8" height="6"/>
  </g>
  <g>
    <g>
      <line class="st18" x1="160.01" y1="36.11" x2="200.27" y2="36.11"/>
      <path class="st28" d="M203.28,36.11c-1.42.53-3.18,1.43-4.27,2.38l.86-2.38-.86-2.38c1.09.95,2.85,1.85,4.27,2.38Z"/>
    </g>
    <g>
      <line class="st18" x1="147.67" y1="14.05" x2="160.37" y2="36.05"/>
      <line class="st18" x1="147.67" y1="58.11" x2="160.37" y2="36.11"/>
    </g>
  </g>
  <text class="st3" transform="translate(103.54 61.32)"><tspan x="0" y="0">?</tspan></text>
  <text class="st3" transform="translate(43.2 92.46)"><tspan x="0" y="0">?</tspan></text>
  <text class="st6" transform="translate(0 6.01)"><tspan x="0" y="0">a</tspan></text>
  <text class="st6" transform="translate(260.41 6.01)"><tspan x="0" y="0">b</tspan></text>
  <text class="st6" transform="translate(260.41 86.94)"><tspan x="0" y="0">c</tspan></text>
</svg>