<?xml version="1.0" encoding="UTF-8"?>
<svg xmlns="http://www.w3.org/2000/svg" viewBox="0 0 550.05 130.62">
  <defs>
    <style>
      .cls-1 {
        fill: #fbb040;
      }

      .cls-1, .cls-2, .cls-3, .cls-4, .cls-5, .cls-6, .cls-7, .cls-8, .cls-9, .cls-10, .cls-11 {
        stroke-miterlimit: 10;
        stroke-width: .5px;
      }

      .cls-1, .cls-6, .cls-7, .cls-8, .cls-9, .cls-11 {
        stroke: #231f20;
      }

      .cls-12, .cls-9 {
        fill: #7f3f98;
      }

      .cls-2 {
        stroke: #21409a;
      }

      .cls-2, .cls-3, .cls-5, .cls-6, .cls-10 {
        fill: none;
      }

      .cls-13 {
        font-family: Arial-BoldItalicMT, Arial;
        font-size: 8px;
        font-style: italic;
      }

      .cls-13, .cls-14 {
        font-weight: 700;
      }

      .cls-3 {
        stroke: #939598;
      }

      .cls-15 {
        fill: #231f20;
      }

      .cls-4 {
        fill: #eeecf6;
        stroke: #000;
      }

      .cls-5 {
        stroke: #ed1c24;
      }

      .cls-16, .cls-8 {
        fill: #ed1c24;
      }

      .cls-17, .cls-18, .cls-19 {
        font-family: ArialMT, Arial;
      }

      .cls-17, .cls-18, .cls-19, .cls-14 {
        font-size: 7px;
      }

      .cls-17, .cls-20 {
        fill: #f7941d;
      }

      .cls-7, .cls-19 {
        fill: #00aeef;
      }

      .cls-21 {
        letter-spacing: -.07em;
      }

      .cls-21, .cls-22, .cls-11 {
        fill: #21409a;
      }

      .cls-23 {
        letter-spacing: -.02em;
      }

      .cls-24 {
        fill: #939598;
      }

      .cls-10 {
        stroke: #00aeef;
      }

      .cls-14 {
        font-family: Arial-BoldMT, Arial;
      }
    </style>
  </defs>
  <g id="Layer_1" data-name="Layer 1">
    <text class="cls-14" transform="translate(108.44 70.94)"><tspan x="0" y="0">+32-kb</tspan></text>
    <text class="cls-18" transform="translate(141.48 71.12)"><tspan x="0" y="0">+41-kb</tspan></text>
    <text class="cls-18" transform="translate(183.75 71.12)"><tspan x="0" y="0">+56-kb</tspan></text>
    <text class="cls-18" transform="translate(88.83 6.01)"><tspan class="cls-22" x="0" y="0">B</tspan><tspan class="cls-21" x="4.67" y="0">A</tspan><tspan class="cls-22" x="8.82" y="0">TF3</tspan><tspan x="21.26" y="0">-</tspan><tspan class="cls-20" x="23.59" y="0">JUNB</tspan><tspan x="41.87" y="0">-</tspan><tspan class="cls-12" x="44.2" y="0">IRF8</tspan></text>
    <text class="cls-13" transform="translate(22.89 42.53)"><tspan x="0" y="0">Irf8</tspan></text>
    <g>
      <line class="cls-6" x1="29.51" y1="59.2" x2="29.51" y2="49.67"/>
      <g>
        <line class="cls-6" x1="29.51" y1="49.67" x2="56.5" y2="49.67"/>
        <path class="cls-15" d="M59.51,49.67c-1.42.53-3.18,1.43-4.27,2.38l.86-2.38-.86-2.38c1.09.95,2.85,1.85,4.27,2.38Z"/>
      </g>
    </g>
    <g>
      <path class="cls-9" d="M117.53,14.78c-.14.5,0,.61,0,1.71,0,1.18-.14,1.24-.03,1.84.09.48.22,1.2.81,1.62.9.65,2.15.07,2.23.03.35-.17.48-.34,1.39-1.42,1.04-1.25,1.45-1.73,2.1-2.26.69-.57,1.07-.72,1.46-.74.11,0,.95-.06,1.33.49.05.08.16.26.1,1.16-.07.95-.13,1.74-.61,1.97-.03.02-.25.12-.42.03-.2-.11-.12-.4-.29-.78-.05-.11-.24-.49-.61-.68-.52-.25-1.08.02-1.16.06-.28.14-.5.37-.91,1.16-.61,1.19-.48,1.39-.94,2.1-.31.5-.63.99-1.23,1.26-.47.21-.66.08-1.23.36-.35.17-.82.39-1.04.87-.24.54-.02,1.09.13,1.49.25.64.65,1.03.87,1.23.53.49,1.06.69,1.2.74.39.14.92.16,1.97.19,1.11.03,1.34,0,1.46-.03.21-.04.76-.18,1.36-.58.17-.11.82-.57,1.29-1.46.35-.66.44-1.25.49-1.59.04-.26.02-.76,0-1.75-.02-1-.05-1.23.06-1.65.07-.27.1-.23.36-.94.18-.49.29-.8.39-1.2.13-.52.21-.86.19-1.29,0-.22-.04-.82-.39-1.36-.54-.82-1.66-1.23-2.56-1.07-1.08.2-1.84.91-1.84.91-.21.19-.43.46-.71.42-.15-.02-.28-.12-.6-.56-.38-.52-.44-.71-.63-.96-.12-.16-.51-.64-1.13-.87-.13-.05-1.09-.39-1.94.16-.65.42-.84,1.11-.91,1.36Z"/>
      <path class="cls-1" d="M117.17,11.62c-1.86.15-2.13,3.43-4.71,8.42-2.36,4.6-4.64,6.69-3.74,8.05.36.55,1.12.8,1.72.75,1.75-.13,2.32-2.74,4.62-7.32,2.74-5.45,4.86-7.57,3.86-9.05-.27-.41-.7-.62-.7-.62s-.48-.29-1.07-.24Z"/>
      <path class="cls-11" d="M120.54,27.67c.74-2.17-2.2-3.88-4.71-8.25-2.48-4.32-2.5-7.72-4.21-7.82-.66-.04-1.31.42-1.64.93-.66,1.04-.25,2.64,3.09,8.09,3.17,5.16,5.26,8.52,6.64,8.08.52-.17.74-.81.82-1.04Z"/>
    </g>
    <g>
      <line class="cls-3" x1="115.54" y1="33.65" x2="115.54" y2="48.39"/>
      <path class="cls-24" d="M115.54,51.4c-.53-1.42-1.43-3.18-2.38-4.27l2.38.86,2.38-.86c-.95,1.09-1.85,2.85-2.38,4.27Z"/>
    </g>
    <line class="cls-6" x1="19.56" y1="59.2" x2="209.56" y2="59.2"/>
    <g>
      <rect class="cls-4" x="111.76" y="56.2" width="3.54" height="6"/>
      <rect class="cls-4" x="115.54" y="56.2" width="3.54" height="6"/>
      <rect class="cls-4" x="119.1" y="56.2" width="3.54" height="6"/>
      <rect class="cls-4" x="129.69" y="56.2" width="3.54" height="6"/>
    </g>
    <rect class="cls-11" x="149.98" y="56.2" width="8" height="6"/>
    <rect class="cls-8" x="193.51" y="56.2" width="8" height="6"/>
  </g>
  <g id="Layer_2" data-name="Layer 2">
    <g>
      <path class="cls-1" d="M537.92,68.95c-1.86.15-2.13,3.43-4.71,8.42-2.36,4.6-4.64,6.69-3.74,8.05.36.55,1.12.8,1.72.75,1.75-.13,2.32-2.74,4.62-7.32,2.74-5.45,4.86-7.57,3.86-9.05-.27-.41-.7-.62-.7-.62s-.48-.29-1.07-.24Z"/>
      <path class="cls-1" d="M541.29,85.01c.74-2.17-2.2-3.88-4.71-8.25-2.48-4.32-2.5-7.72-4.21-7.82-.66-.04-1.31.42-1.64.93-.66,1.04-.25,2.64,3.09,8.09,3.17,5.16,5.26,8.52,6.64,8.08.52-.17.74-.81.82-1.04Z"/>
    </g>
    <g>
      <line class="cls-5" x1="531.85" y1="90.51" x2="531.85" y2="105.25"/>
      <path class="cls-16" d="M531.85,108.27c-.53-1.42-1.43-3.18-2.38-4.27l2.38.86,2.38-.86c-.95,1.09-1.85,2.85-2.38,4.27Z"/>
    </g>
    <g>
      <path class="cls-7" d="M515.48,64.82c-1.14,0-1.53,1.22-3.65,3.89-2.31,2.9-3.49,3.53-3.26,4.78.16.89.98,1.77,1.82,1.82,1.07.06,1.51-1.3,3.64-4.02,2.39-3.04,3.77-3.78,3.45-4.98-.22-.83-1.16-1.5-2-1.5Z"/>
      <path class="cls-7" d="M517.83,69.17c-1.87-.07-2.53,3.14-5.69,7.79-2.9,4.28-5.41,6.08-4.68,7.54.29.59,1.02.93,1.62.95,1.75.08,2.63-2.44,5.47-6.71,3.38-5.08,5.73-6.93,4.93-8.52-.22-.44-.62-.7-.62-.7s-.44-.34-1.04-.37Z"/>
      <path class="cls-7" d="M512.39,65.94c-.5,1.02.43,1.91,1.9,4.99,1.6,3.34,1.65,4.68,2.87,5.03.87.24,2.02-.11,2.43-.83.53-.94-.51-1.92-2.01-5.04-1.68-3.48-1.75-5.04-2.96-5.28-.84-.17-1.86.38-2.23,1.14Z"/>
      <path class="cls-7" d="M519.76,85.2c.91-1.63-1.65-3.68-4.36-8.61-2.49-4.53-2.96-7.58-4.59-7.6-.66,0-1.29.49-1.59,1.01-.87,1.53.98,3.46,3.49,7.93,2.99,5.32,3.57,8.26,5.35,8.26.67,0,1.37-.41,1.7-.99Z"/>
      <path class="cls-10" d="M519.11,69.62c.15-.08,2.08-1,3.77.02,1.85,1.11,1.73,3.51,1.7,4.01-.03.52-.15,3.11-2.12,3.83-1.35.49-3.02-.08-4.07-1.45"/>
      <path class="cls-10" d="M509.24,74.93c-.12.13-1.32,1.4-2.81,1.13-1.86-.34-2.36-2.76-2.44-3.12-.07-.33-.62-3.01,1.24-4.2,1.23-.79,3.01-.6,4.28.53"/>
    </g>
    <g>
      <line class="cls-2" x1="516.72" y1="90.51" x2="516.72" y2="105.25"/>
      <path class="cls-22" d="M516.72,108.27c-.53-1.42-1.43-3.18-2.38-4.27l2.38.86,2.38-.86c-.95,1.09-1.85,2.85-2.38,4.27Z"/>
    </g>
    <text class="cls-14" transform="translate(511.1 127.98)"><tspan x="0" y="0">-165-kb</tspan></text>
    <text class="cls-19" transform="translate(494.58 59.61)"><tspan x="0" y="0">E protein</tspan></text>
    <text class="cls-17" transform="translate(529.47 59.61)"><tspan x="0" y="0">CEB</tspan><tspan class="cls-23" x="14.39" y="0">P</tspan></text>
    <text class="cls-13" transform="translate(20.77 100.3)"><tspan x="0" y="0">Zeb2</tspan></text>
    <g>
      <line class="cls-6" x1="30" y1="115.48" x2="30" y2="105.94"/>
      <g>
        <line class="cls-6" x1="30" y1="105.94" x2="3.02" y2="105.94"/>
        <path class="cls-15" d="M0,105.94c1.42-.53,3.18-1.43,4.27-2.38l-.86,2.38.86,2.38c-1.09-.95-2.85-1.85-4.27-2.38Z"/>
      </g>
    </g>
    <line class="cls-6" x1="20.05" y1="115.48" x2="550.05" y2="115.48"/>
    <g>
      <rect class="cls-11" x="515.23" y="112.48" width="2.97" height="6"/>
      <rect class="cls-11" x="525.21" y="112.48" width="2.97" height="6"/>
      <rect class="cls-11" x="534.57" y="112.48" width="2.97" height="6"/>
      <rect class="cls-8" x="508.56" y="112.48" width="3.54" height="6"/>
      <rect class="cls-8" x="519.33" y="112.48" width="3.54" height="6"/>
      <rect class="cls-8" x="529.89" y="112.48" width="3.54" height="6"/>
    </g>
  </g>
</svg>